<?xml version="1.0" encoding="utf-8"?>
<!-- Generator: Adobe Illustrator 16.0.0, SVG Export Plug-In . SVG Version: 6.00 Build 0)  -->
<!DOCTYPE svg PUBLIC "-//W3C//DTD SVG 1.1//EN" "http://www.w3.org/Graphics/SVG/1.1/DTD/svg11.dtd">
<svg version="1.1" id="Layer_2" xmlns="http://www.w3.org/2000/svg" xmlns:xlink="http://www.w3.org/1999/xlink" x="0px" y="0px"
	 width="255.12px" height="62.36px" viewBox="0 0 255.12 62.36" enable-background="new 0 0 255.12 62.36" xml:space="preserve">
<path fill="none" stroke="#000000" stroke-width="0.5" stroke-miterlimit="10" d="M50.188,57.602
	c8.822,0.758,24.268,1.17,37.121,1.797c44.748,2.182,71.051-12.391,75.443-10.779c3.969,1.457,13.211,10.504,21.49,7.326
	c0,0,12.408-5.164,21.154-8.936c8.212-3.539,23.023-2.039,40.49-5.02c8.95-1.527,6.861-4.57,7.072-13.425
	c0.214-8.949-0.645-12.404-6.681-13.385c-21.516-3.497-40.876-5.605-40.876-5.605s-69.406-7.624-94.297-6.767
	c0,0-40.109,11.615-90.615,11.615c-22.62,0-25.412,26.153-2.639,34.092C31.531,53.285,37.296,56.494,50.188,57.602z"/>
<path d="M205.396,47.01c8.212-3.539,23.023-2.039,40.49-5.02c8.95-1.527,6.861-4.57,7.072-13.425
	c0.214-8.949-0.645-12.404-6.681-13.385c-21.516-3.497-40.876-5.605-40.876-5.605L205.396,47.01z"/>
</svg>
