<?xml version="1.0" encoding="utf-8"?>
<!-- Generator: Adobe Illustrator 16.0.0, SVG Export Plug-In . SVG Version: 6.00 Build 0)  -->
<!DOCTYPE svg PUBLIC "-//W3C//DTD SVG 1.1//EN" "http://www.w3.org/Graphics/SVG/1.1/DTD/svg11.dtd">
<svg version="1.1" id="Layer_2" xmlns="http://www.w3.org/2000/svg" xmlns:xlink="http://www.w3.org/1999/xlink" x="0px" y="0px"
	 width="583.94px" height="96.38px" viewBox="0 0 583.94 96.38" enable-background="new 0 0 583.94 96.38" xml:space="preserve">
<path fill="none" stroke="#000000" stroke-width="0.5" stroke-miterlimit="10" d="M1.432,46.141v14.021
	c0,0,193.137-6.637,265.389-4.803c39.404,1,82.87,31.052,112.842,33.668c12.59,1.099,24.27,1.169,37.123,1.796
	c44.748,2.183,73.941-13.688,75.443-10.778c1.701,3.301-8.27,8.406-6.685,11.96c3.488,7.822,40.582-9.799,49.327-13.569
	c8.213-3.539,23.024-2.039,40.492-5.021c8.949-1.527,6.859-4.57,7.072-13.425c0.213-8.948-0.646-12.403-6.682-13.385
	C554.238,43.108,534.878,41,534.878,41s-68.977-7.64-94.298-6.766c0,0-38.418-14.408-54.57-15.5l-0.225-16.341l-124.42,0.01
	l-1.304,16.331c-34.416,6.67-84.825,10.626-111.609,11.788C140.364,30.873,1.432,46.141,1.432,46.141z"/>
<path d="M349.967,45.849c42.13,0,76.38-7.598,90.613-11.614c0,0-38.418-14.408-54.57-15.5h-70.074c0,0-5.836,11.174-3.455,15.674
	C315.314,39.764,342.873,45.849,349.967,45.849z"/>
<g>
	<g>
		<line fill="none" stroke="#000000" stroke-width="0.5" stroke-miterlimit="10" x1="386.01" y1="18.734" x2="380.01" y2="18.734"/>
		
			<line fill="none" stroke="#000000" stroke-width="0.5" stroke-miterlimit="10" stroke-dasharray="11.9946,5.9973" x1="374.013" y1="18.734" x2="269.06" y2="18.734"/>
		
			<line fill="none" stroke="#000000" stroke-width="0.5" stroke-miterlimit="10" x1="266.062" y1="18.734" x2="260.062" y2="18.734"/>
	</g>
</g>
<g>
	<g>
		
			<line fill="none" stroke="#000000" stroke-width="0.5" stroke-miterlimit="10" x1="299.11" y1="24.225" x2="299.206" y2="22.317"/>
		<g>
			<polygon points="299.347,19.496 300.772,23.552 299.195,22.528 297.524,23.39 			"/>
		</g>
	</g>
</g>
</svg>
