<?xml version="1.0" encoding="utf-8"?>
<!-- Generator: Adobe Illustrator 16.0.0, SVG Export Plug-In . SVG Version: 6.00 Build 0)  -->
<!DOCTYPE svg PUBLIC "-//W3C//DTD SVG 1.1//EN" "http://www.w3.org/Graphics/SVG/1.1/DTD/svg11.dtd">
<svg version="1.1" id="Aircraft_Parts" xmlns="http://www.w3.org/2000/svg" xmlns:xlink="http://www.w3.org/1999/xlink" x="0px"
	 y="0px" width="572.6px" height="130.39px" viewBox="0 0 572.6 130.39" enable-background="new 0 0 572.6 130.39"
	 xml:space="preserve">
<g>
	<g>
		
			<line fill="none" stroke="#000000" stroke-width="0.5" stroke-miterlimit="10" x1="286.299" y1="127.784" x2="286.299" y2="5.56"/>
		<g>
			<polygon points="286.299,2.735 287.926,6.715 286.299,5.771 284.673,6.715 			"/>
		</g>
	</g>
</g>
<path fill="none" stroke="#000000" stroke-width="0.5" stroke-miterlimit="10" d="M286.299,2.735c0,0,124.594-2.135,269.727,5.972
	c5.991,0.335,9.824,6.028,10.393,8.664c3.215,14.901,2.022,62.938,2.022,62.938s-140.963,42.928-282.142,47.476"/>
<path fill="none" stroke="#000000" stroke-width="0.5" stroke-miterlimit="10" d="M286.299,2.863c0,0-124.595-2.135-269.728,5.972
	c-5.991,0.334-9.825,6.028-10.393,8.664C2.964,32.4,4.157,80.436,4.157,80.436s140.963,42.929,282.142,47.477"/>
</svg>
