<?xml version="1.0" encoding="utf-8"?>
<!-- Generator: Adobe Illustrator 16.0.0, SVG Export Plug-In . SVG Version: 6.00 Build 0)  -->
<!DOCTYPE svg PUBLIC "-//W3C//DTD SVG 1.1//EN" "http://www.w3.org/Graphics/SVG/1.1/DTD/svg11.dtd">
<svg version="1.1" id="Aircraft_Parts" xmlns="http://www.w3.org/2000/svg" xmlns:xlink="http://www.w3.org/1999/xlink" x="0px"
	 y="0px" width="436.54px" height="153.07px" viewBox="0 0 436.54 153.07" enable-background="new 0 0 436.54 153.07"
	 xml:space="preserve">
<line fill="none" stroke="#000000" stroke-width="0.5" stroke-miterlimit="10" x1="218.268" y1="148.935" x2="218.268" y2="4.137"/>
<path fill="none" stroke="#000000" stroke-width="0.5" stroke-miterlimit="10" d="M218.268,15.787c0,0,104.24-1.509,214.797,3.573
	v22.379c0,0-21.089,58.899-22.437,59.209c-79.211,18.19-145.157,22.646-145.157,22.646l-0.272,12.552l-46.931,1.743"/>
<path fill="none" stroke="#000000" stroke-width="0.5" stroke-miterlimit="10" d="M218.268,15.787c0,0-104.241-1.509-214.797,3.573
	v22.379c0,0,21.088,58.899,22.437,59.209c79.21,18.19,145.157,22.646,145.157,22.646l0.273,12.552l46.931,1.743"/>
<g>
	<g>
		
			<line fill="none" stroke="#000000" stroke-width="0.5" stroke-miterlimit="10" x1="218.268" y1="30.014" x2="218.268" y2="18.612"/>
		<g>
			<polygon points="218.268,15.788 219.894,19.767 218.268,18.823 216.642,19.767 			"/>
		</g>
	</g>
</g>
</svg>
