<?xml version="1.0" encoding="utf-8"?>
<!-- Generator: Adobe Illustrator 16.0.0, SVG Export Plug-In . SVG Version: 6.00 Build 0)  -->
<!DOCTYPE svg PUBLIC "-//W3C//DTD SVG 1.1//EN" "http://www.w3.org/Graphics/SVG/1.1/DTD/svg11.dtd">
<svg version="1.1" id="Layer_2" xmlns="http://www.w3.org/2000/svg" xmlns:xlink="http://www.w3.org/1999/xlink" x="0px" y="0px"
	 width="640.63px" height="79.37px" viewBox="0 0 640.63 79.37" enable-background="new 0 0 640.63 79.37" xml:space="preserve">
<path fill="none" stroke="#000000" stroke-width="0.5" stroke-miterlimit="10" d="M5.866,14.728l0.141,8.289L3.715,40.806
	l265.212,13.643c31.438,1.965,113.76,13.543,151.79,16.972c12.586,1.135,37.623,2.102,50.477,2.729
	c44.748,2.183,73.942-13.688,75.443-10.778c1.701,3.301-8.27,8.406-6.684,11.96c3.488,7.822,40.582-9.799,49.327-13.569
	c8.212-3.539,23.024-2.039,40.491-5.021c8.949-1.527,6.861-4.57,7.072-13.425c0.213-8.948-0.645-12.403-6.682-13.385
	c-21.515-3.497-40.875-5.605-40.875-5.605s-68.977-7.64-94.298-6.766c0,0-38.418-14.408-54.57-15.5H314.471
	c-34.012,6.551-83.682,10.51-111.61,11.789c-16.693,0.764-111.1,10.855-111.1,10.855l-0.721-7.385L5.866,14.728z"/>
<g>
	<g>
		<line fill="none" stroke="#000000" stroke-width="0.5" stroke-miterlimit="10" x1="91.761" y1="24.704" x2="85.762" y2="24.586"/>
		
			<line fill="none" stroke="#000000" stroke-width="0.5" stroke-miterlimit="10" stroke-dasharray="11.3493,5.6747" x1="80.088" y1="24.475" x2="14.842" y2="23.19"/>
		<line fill="none" stroke="#000000" stroke-width="0.5" stroke-miterlimit="10" x1="12.006" y1="23.135" x2="6.007" y2="23.017"/>
	</g>
</g>
</svg>
