<?xml version="1.0" encoding="utf-8"?>
<!-- Generator: Adobe Illustrator 16.0.0, SVG Export Plug-In . SVG Version: 6.00 Build 0)  -->
<!DOCTYPE svg PUBLIC "-//W3C//DTD SVG 1.1//EN" "http://www.w3.org/Graphics/SVG/1.1/DTD/svg11.dtd">
<svg version="1.1" id="Layer_2" xmlns="http://www.w3.org/2000/svg" xmlns:xlink="http://www.w3.org/1999/xlink" x="0px" y="0px"
	 width="640.63px" height="175.75px" viewBox="0 0 640.63 175.75" enable-background="new 0 0 640.63 175.75" xml:space="preserve">
<path fill="none" stroke="#000000" stroke-width="0.5" stroke-miterlimit="10" d="M587.909,116.985l46.713-0.545l2.292,17.789
	l-265.212,13.643c-31.438,1.965-113.758,13.543-151.788,16.972c-12.586,1.135-37.624,2.102-50.477,2.729
	c-44.748,2.183-73.942-13.688-75.443-10.778c-1.702,3.301,8.27,8.406,6.684,11.96c-3.488,7.822-40.582-9.799-49.328-13.569
	c-8.212-3.539-23.024-2.039-40.491-5.021c-8.95-1.527-6.86-4.57-7.072-13.425c-0.213-8.949,0.645-12.404,6.681-13.385
	c21.516-3.497,40.876-5.605,40.876-5.605s68.977-7.639,94.297-6.767c0,0,38.418-14.407,54.57-15.498h125.948
	c34.011,6.55,83.681,10.509,111.609,11.788c16.693,0.764,22.205-3.75,28.377-7.749c25.77-16.698,75.889-74.295,85.282-83.444
	c5.801-5.649,6.677-8.103,16.459-9.105c12.769-1.31,30.014-2.292,49.331-1.855L587.909,116.985z"/>
</svg>
