<?xml version="1.0" encoding="utf-8"?>
<!-- Generator: Adobe Illustrator 16.0.0, SVG Export Plug-In . SVG Version: 6.00 Build 0)  -->
<!DOCTYPE svg PUBLIC "-//W3C//DTD SVG 1.1//EN" "http://www.w3.org/Graphics/SVG/1.1/DTD/svg11.dtd">
<svg version="1.1" id="Layer_2" xmlns="http://www.w3.org/2000/svg" xmlns:xlink="http://www.w3.org/1999/xlink" x="0px" y="0px"
	 width="583.94px" height="96.38px" viewBox="0 0 583.94 96.38" enable-background="new 0 0 583.94 96.38" xml:space="preserve">
<path fill="none" stroke="#000000" stroke-width="0.5" stroke-miterlimit="10" d="M582.506,46.141v14.021
	c0,0-193.137-6.637-265.389-4.803c-39.404,1-82.87,31.052-112.842,33.668c-12.59,1.099-24.269,1.169-37.122,1.796
	c-44.748,2.183-73.942-13.688-75.443-10.778c-1.702,3.301,8.27,8.406,6.684,11.96c-3.488,7.822-40.582-9.799-49.328-13.569
	c-8.212-3.539-23.024-2.039-40.491-5.021c-8.95-1.527-6.86-4.57-7.072-13.425c-0.213-8.948,0.645-12.403,6.681-13.385
	C29.699,43.108,49.06,41,49.06,41s68.977-7.64,94.297-6.766c0,0,38.418-14.408,54.57-15.5l0.226-16.341l124.419,0.01l1.304,16.331
	c34.416,6.67,84.825,10.626,111.609,11.788C443.573,30.873,582.506,46.141,582.506,46.141z"/>
<path d="M233.971,45.849c-42.13,0-76.38-7.598-90.614-11.614c0,0,38.418-14.408,54.57-15.5h70.074c0,0,5.837,11.174,3.456,15.674
	C268.624,39.764,241.065,45.849,233.971,45.849z"/>
<g>
	<g>
		
			<line fill="none" stroke="#000000" stroke-width="0.5" stroke-miterlimit="10" x1="197.927" y1="18.734" x2="203.927" y2="18.734"/>
		
			<line fill="none" stroke="#000000" stroke-width="0.5" stroke-miterlimit="10" stroke-dasharray="11.9946,5.9973" x1="209.924" y1="18.734" x2="314.877" y2="18.734"/>
		
			<line fill="none" stroke="#000000" stroke-width="0.5" stroke-miterlimit="10" x1="317.876" y1="18.734" x2="323.876" y2="18.734"/>
	</g>
</g>
<g>
	<g>
		
			<line fill="none" stroke="#000000" stroke-width="0.5" stroke-miterlimit="10" x1="284.827" y1="24.225" x2="284.732" y2="22.317"/>
		<g>
			<polygon points="284.591,19.496 286.414,23.39 284.742,22.528 283.166,23.552 			"/>
		</g>
	</g>
</g>
</svg>
