<?xml version="1.0" encoding="utf-8"?>
<!-- Generator: Adobe Illustrator 16.0.0, SVG Export Plug-In . SVG Version: 6.00 Build 0)  -->
<!DOCTYPE svg PUBLIC "-//W3C//DTD SVG 1.1//EN" "http://www.w3.org/Graphics/SVG/1.1/DTD/svg11.dtd">
<svg version="1.1" id="Layer_2" xmlns="http://www.w3.org/2000/svg" xmlns:xlink="http://www.w3.org/1999/xlink" x="0px" y="0px"
	 width="640.63px" height="79.37px" viewBox="0 0 640.63 79.37" enable-background="new 0 0 640.63 79.37" xml:space="preserve">
<path fill="none" stroke="#000000" stroke-width="0.5" stroke-miterlimit="10" d="M634.764,14.728l-0.141,8.289l2.292,17.789
	L371.703,54.448c-31.438,1.965-113.76,13.543-151.79,16.972c-12.586,1.135-37.624,2.102-50.477,2.729
	C124.688,76.331,95.494,60.46,93.993,63.37c-1.701,3.301,8.27,8.406,6.685,11.96c-3.488,7.822-40.582-9.799-49.328-13.569
	c-8.212-3.539-23.024-2.039-40.491-5.021c-8.95-1.527-6.861-4.57-7.072-13.425c-0.213-8.948,0.645-12.403,6.681-13.385
	c21.515-3.497,40.876-5.605,40.876-5.605s68.977-7.64,94.297-6.766c0,0,38.418-14.408,54.57-15.5h125.948
	c34.012,6.551,83.682,10.51,111.61,11.789c16.693,0.764,111.1,10.855,111.1,10.855l0.721-7.385L634.764,14.728z"/>
<g>
	<g>
		
			<line fill="none" stroke="#000000" stroke-width="0.5" stroke-miterlimit="10" x1="548.869" y1="24.704" x2="554.868" y2="24.586"/>
		
			<line fill="none" stroke="#000000" stroke-width="0.5" stroke-miterlimit="10" stroke-dasharray="11.3493,5.6747" x1="560.542" y1="24.475" x2="625.787" y2="23.19"/>
		
			<line fill="none" stroke="#000000" stroke-width="0.5" stroke-miterlimit="10" x1="628.624" y1="23.135" x2="634.623" y2="23.017"/>
	</g>
</g>
</svg>
