<?xml version="1.0" encoding="utf-8"?>
<!-- Generator: Adobe Illustrator 16.0.0, SVG Export Plug-In . SVG Version: 6.00 Build 0)  -->
<!DOCTYPE svg PUBLIC "-//W3C//DTD SVG 1.1//EN" "http://www.w3.org/Graphics/SVG/1.1/DTD/svg11.dtd">
<svg version="1.1" id="Aircraft_Parts" xmlns="http://www.w3.org/2000/svg" xmlns:xlink="http://www.w3.org/1999/xlink" x="0px"
	 y="0px" width="317.48px" height="90.71px" viewBox="0 0 317.48 90.71" enable-background="new 0 0 317.48 90.71"
	 xml:space="preserve">
<g>
	<g>
		<line fill="none" stroke="#000000" stroke-width="0.5" stroke-miterlimit="10" x1="158.74" y1="87.736" x2="158.74" y2="44.905"/>
		<g>
			<polygon points="158.74,42.081 160.366,46.061 158.74,45.116 157.114,46.061 			"/>
		</g>
	</g>
</g>
<path fill="none" stroke="#000000" stroke-width="0.5" stroke-miterlimit="10" d="M158.74,42.081h1.455V2.972
	c0,0,78.593,6.934,146.363,27.106c4.311,1.283,6.275,4.73,6.912,6.367c2.729,7.01-0.909,51.292-0.909,51.292H158.74"/>
<path fill="none" stroke="#000000" stroke-width="0.5" stroke-miterlimit="10" d="M158.74,42.081h-1.455V2.972
	c0,0-78.593,6.934-146.363,27.106c-4.311,1.283-6.275,4.73-6.912,6.367c-2.729,7.01,0.909,51.292,0.909,51.292H158.74"/>
</svg>
